<svg xmlns="http://www.w3.org/2000/svg" viewBox="0 0 800 600" width="800" height="600" role="img" aria-label="Industrial Hardware">
  
  <defs>
    <linearGradient id="bg-industrialhardware" x1="0" y1="0" x2="1" y2="1">
      <stop offset="0" stop-color="#FFFFFF"/>
      <stop offset="0.55" stop-color="#F4F7FA"/>
      <stop offset="1" stop-color="#E6ECF3"/>
    </linearGradient>
    <pattern id="grid-industrialhardware" width="32" height="32" patternUnits="userSpaceOnUse">
      <path d="M32 0H0V32" fill="none" stroke="#0D1F37" stroke-opacity="0.07" stroke-width="1"/>
    </pattern>
    <pattern id="grid-fine-industrialhardware" width="8" height="8" patternUnits="userSpaceOnUse">
      <path d="M8 0H0V8" fill="none" stroke="#0D1F37" stroke-opacity="0.04" stroke-width="0.6"/>
    </pattern>
    <pattern id="hatch-industrialhardware" width="7" height="7" patternUnits="userSpaceOnUse" patternTransform="rotate(45)">
      <line x1="0" y1="0" x2="0" y2="7" stroke="#2B4C7E" stroke-opacity="0.35" stroke-width="1.4"/>
    </pattern>
    <linearGradient id="metal-industrialhardware" x1="0" y1="0" x2="0" y2="1">
      <stop offset="0" stop-color="#E9EEF4"/>
      <stop offset="0.4" stop-color="#C6D0DC"/>
      <stop offset="0.5" stop-color="#EFF3F7"/>
      <stop offset="0.62" stop-color="#B9C5D3"/>
      <stop offset="1" stop-color="#D9E1E9"/>
    </linearGradient>
  </defs>
  <rect width="800" height="600" fill="url(#bg-industrialhardware)"/>
  <rect width="800" height="600" fill="url(#grid-fine-industrialhardware)"/>
  <rect width="800" height="600" fill="url(#grid-industrialhardware)"/>
  <g stroke-linecap="round" stroke-linejoin="round">
    
    <g fill="none" stroke="#0D1F37" stroke-width="7">
      <rect x="170" y="200" width="200" height="170" rx="8" fill="url(#metal-industrialhardware)"/>
      <path d="M170 200h200M170 258h200M170 316h200"/>
      <circle cx="270" cy="229" r="12" fill="#F97008" stroke="none"/>
      <circle cx="270" cy="287" r="12" fill="none" stroke="#2B4C7E" stroke-width="6"/>
      <circle cx="270" cy="345" r="12" fill="none" stroke="#2B4C7E" stroke-width="6"/>
    </g>
    <g fill="none" stroke="#0D1F37" stroke-width="7">
      <path d="M430 214h190a14 14 0 0 1 14 14v128a14 14 0 0 1-14 14H430a14 14 0 0 1-14-14V228a14 14 0 0 1 14-14z" fill="url(#hatch-industrialhardware)"/>
      <path d="M462 214v156M526 214v156M590 214v156"/>
    </g>
    <path d="M150 420h500" stroke="#F97008" stroke-width="9" fill="none"/>
  </g>
  
  <g>
    <line x1="24" y1="24" x2="24" y2="54" stroke="#0D1F37" stroke-opacity="0.35" stroke-width="2"/><line x1="24" y1="24" x2="54" y2="24" stroke="#0D1F37" stroke-opacity="0.35" stroke-width="2"/><line x1="776" y1="24" x2="776" y2="54" stroke="#0D1F37" stroke-opacity="0.35" stroke-width="2"/><line x1="776" y1="24" x2="746" y2="24" stroke="#0D1F37" stroke-opacity="0.35" stroke-width="2"/><line x1="24" y1="576" x2="24" y2="546" stroke="#0D1F37" stroke-opacity="0.35" stroke-width="2"/><line x1="24" y1="576" x2="54" y2="576" stroke="#0D1F37" stroke-opacity="0.35" stroke-width="2"/><line x1="776" y1="576" x2="776" y2="546" stroke="#0D1F37" stroke-opacity="0.35" stroke-width="2"/><line x1="776" y1="576" x2="746" y2="576" stroke="#0D1F37" stroke-opacity="0.35" stroke-width="2"/>
    <g stroke="#77869A" stroke-width="1.1" stroke-opacity="0.75">
      <line x1="250" y1="546" x2="550" y2="546"/>
      <line x1="250" y1="539" x2="250" y2="553"/>
      <line x1="550" y1="539" x2="550" y2="553"/>
    </g>
    <text x="400" y="534" text-anchor="middle" font-family="'Segoe UI',Inter,sans-serif"
      font-size="15" letter-spacing="3.4" fill="#77869A">INDUSTRIAL HARDWARE</text>
  </g>
</svg>
